<?xml version="1.0" standalone="no"?>
<!DOCTYPE svg PUBLIC "-//W3C//DTD SVG 20010904//EN"
 "http://www.w3.org/TR/2001/REC-SVG-20010904/DTD/svg10.dtd">
<svg version="1.0" xmlns="http://www.w3.org/2000/svg"
 width="1000.000000pt" height="1000.000000pt" viewBox="0 0 1000.000000 1000.000000"
 preserveAspectRatio="xMidYMid meet">
<metadata>
Created by potrace 1.14, written by Peter Selinger 2001-2017
</metadata>
<g transform="translate(0.000000,1000.000000) scale(0.100000,-0.100000)"
fill="#000000" stroke="none">
<path d="M2729 8548 c-60 -37 -64 -51 -64 -285 l0 -213 -25 -1 c-14 0 -110 -1
-215 -2 -286 -3 -282 1 -282 -312 l1 -210 -216 0 c-309 -1 -302 5 -305 -290
-1 -110 -2 -207 -2 -216 -1 -14 -25 -16 -204 -16 -221 0 -260 -7 -292 -51 -19
-26 -20 -45 -23 -509 -2 -372 -5 -483 -15 -484 -6 0 -104 -1 -217 -2 -220 -2
-233 -5 -269 -56 l-21 -29 0 -2130 0 -2129 21 -27 c41 -52 61 -56 288 -56
l210 0 3 -225 3 -225 33 -32 32 -33 563 -3 c408 -2 569 1 590 9 15 6 37 25 49
42 21 29 22 42 23 246 l1 216 219 5 c234 5 248 8 281 57 17 25 19 50 20 241 1
117 4 215 7 218 5 5 98 7 229 5 l37 -1 -1 -147 c0 -309 -2 -289 35 -328 17
-19 43 -37 57 -39 14 -3 116 -5 227 -5 l202 -1 3 -225 3 -225 33 -32 32 -33
563 -3 c513 -3 565 -2 594 14 64 33 67 46 69 279 1 116 2 213 3 218 0 4 93 7
206 7 312 0 309 -3 312 265 2 99 3 198 3 220 l0 40 102 -2 c57 -1 117 -2 134
-2 l31 -1 0 -213 c0 -313 -6 -307 313 -307 l209 0 3 -225 3 -225 33 -32 32
-33 563 -3 c408 -2 569 1 590 9 15 6 37 25 49 42 21 29 22 42 23 246 l0 216
220 5 c234 5 248 8 281 57 17 27 18 91 18 1568 l1 1540 88 0 c70 0 87 3 88 15
1 8 1 59 2 113 l0 97 107 0 c78 0 109 4 112 13 2 6 3 56 2 109 l-1 97 111 3
110 3 0 108 -1 107 109 0 c79 0 108 3 109 13 1 6 1 56 1 110 l0 97 112 0 111
0 -1 110 0 110 108 0 108 0 0 445 0 445 -447 -2 -447 -3 -1 -105 0 -104 -107
1 -108 1 -1 -26 c-1 -15 -1 -62 0 -104 1 -48 -3 -79 -10 -84 -7 -4 -56 -7
-110 -7 -66 0 -99 -3 -100 -11 -1 -6 -2 -56 -3 -111 l-1 -100 -107 1 -108 1
-2 -26 c0 -14 -1 -32 -1 -38 1 -14 -4 -15 -135 -15 -51 0 -96 3 -100 7 -4 3
-7 219 -7 478 -1 443 -2 474 -19 500 -37 55 -60 60 -292 60 l-212 0 0 214 c0
315 8 307 -309 308 l-213 0 0 212 c0 117 -1 216 -1 221 -2 13 -39 55 -62 71
-18 13 -58 16 -217 18 -107 1 -205 2 -217 2 l-23 1 0 205 c0 226 -6 257 -56
290 -28 19 -68 19 -1633 20 -1493 0 -1606 -1 -1632 -17z"/>
</g>
</svg>
